<?xml version="1.0" encoding="utf-8"?>
<!-- Generator: Adobe Illustrator 17.0.2, SVG Export Plug-In . SVG Version: 6.00 Build 0)  -->
<!DOCTYPE svg PUBLIC "-//W3C//DTD SVG 1.1//EN" "http://www.w3.org/Graphics/SVG/1.1/DTD/svg11.dtd">
<svg version="1.1" id="Layer_2" xmlns="http://www.w3.org/2000/svg" xmlns:xlink="http://www.w3.org/1999/xlink" x="0px" y="0px"
	 width="457.5px" height="83.1px" viewBox="0 0 457.5 83.1" enable-background="new 0 0 457.5 83.1" xml:space="preserve">
<path fill="#8192A2" d="M457.5,5.6c0,3.1-3.5,5.6-7.9,5.6H7.9C3.5,11.2,0,8.7,0,5.6l0,0C0,2.5,3.5,0,7.9,0h441.7
	C454,0,457.5,2.5,457.5,5.6L457.5,5.6z"/>
<g>
	<polyline fill="none" stroke="#F2F2F2" stroke-width="2" stroke-miterlimit="10" points="441.7,81.7 437,77.7 432.3,81.7 
		427.6,77.7 423,81.7 418.3,77.7 413.6,81.7 408.9,77.7 404.2,81.7 399.6,77.7 394.9,81.7 390.2,77.7 385.5,81.7 380.9,77.7 
		376.2,81.7 371.5,77.7 366.8,81.7 362.2,77.7 357.5,81.7 352.8,77.7 348.1,81.7 343.4,77.7 338.8,81.7 334.1,77.7 329.4,81.7 
		324.7,77.7 320.1,81.7 315.4,77.7 310.7,81.7 306,77.7 301.3,81.7 296.7,77.7 292,81.7 287.3,77.7 282.6,81.7 278,77.7 273.3,81.7 
		268.6,77.7 263.9,81.7 259.2,77.7 254.6,81.7 249.9,77.7 245.2,81.7 240.5,77.7 235.8,81.7 231.2,77.7 226.5,81.7 221.8,77.7 
		217.1,81.7 212.4,77.7 207.8,81.7 203.1,77.7 198.4,81.7 193.7,77.7 189.1,81.7 184.4,77.7 179.7,81.7 175,77.7 170.4,81.7 
		165.7,77.7 161,81.7 156.3,77.7 151.6,81.7 147,77.7 142.3,81.7 137.6,77.7 132.9,81.7 128.2,77.7 123.6,81.7 118.9,77.7 
		114.2,81.7 109.5,77.7 104.8,81.7 100.2,77.7 95.5,81.7 90.8,77.7 86.1,81.7 81.4,77.7 76.8,81.7 72.1,77.7 67.4,81.7 62.7,77.7 
		58,81.7 53.4,77.7 48.7,81.7 44,77.7 39.3,81.7 34.6,77.7 29.9,81.7 25.2,77.7 20.6,81.7 15.9,77.7 	"/>
</g>
<line fill="none" stroke="#424242" stroke-width="3" stroke-miterlimit="10" x1="14.6" y1="5.6" x2="443.1" y2="5.6"/>
<polygon fill="#606060" points="441.7,8.2 443.1,7.1 441.7,7.1 "/>
<polygon fill="#606060" points="16,8.2 14.6,7.1 16,7.1 "/>
<rect x="15.9" y="5.6" fill="#F2F2F2" stroke="#F2F2F2" stroke-miterlimit="10" width="425.8" height="74.2"/>
</svg>
